<svg xmlns="http://www.w3.org/2000/svg">
    <symbol id="account" viewBox="0 0 256 256" fill="none" >
        <path d="M117.1 83.7c1 1.1 2.4 1.6 3.7 1.6 1.3 0 2.6-.5 3.5-1.4l27.5-26.1c2.1-2 2.2-5.2.2-7.3-2-2.1-5.2-2.2-7.3-.2L121 72.9l-9.6-10c-2-2.1-5.2-2.1-7.3-.1-2.1 2-2.1 5.2-.1 7.3l13.1 13.6z" fill="currentColor"/>
        <path d="M81.6 92.8c4.3 22.2 23.8 38.3 46.4 38.3s42.1-16.1 46.4-38.3l6.5-33.4c1.9-14.2-2.4-28.5-11.8-39.3-9.4-10.8-23-17-37.3-17h-7.6c-14.3 0-27.9 6.2-37.3 17-9.4 10.8-13.7 25.1-11.7 39.5l6.4 33.2zm13-65.9c7.4-8.5 18.2-13.4 29.5-13.4h7.6c11.3 0 22.1 4.9 29.5 13.4 7.4 8.5 10.8 19.9 9.4 30.8l-6.4 33.1c-3.4 17.3-18.6 29.9-36.3 29.9S95 108.1 91.6 90.8l-6.4-32.9c-1.4-11.2 2-22.5 9.4-31zM243.1 240.2l-14-65.8c-1.3-6-5.6-10.9-11.4-13l-44.9-15.9c-1.8-.6-3.8-.2-5.2 1.1l-39.6 37-39.6-37c-1.4-1.3-3.4-1.7-5.2-1.1l-44.9 15.9c-5.7 2-10.1 7-11.4 13l-14 65.8c-.7 3.1.1 6.3 2.1 8.8s5 3.9 8.2 3.9h209.6c3.2 0 6.2-1.4 8.2-3.9s2.7-5.7 2.1-8.8zM23 242.4l14-65.8c.5-2.5 2.3-4.6 4.7-5.4l42-14.9 40.8 38.1c2 1.9 5.1 1.9 7 0l40.8-38.1 41.9 14.9c2.4.9 4.2 2.9 4.7 5.4l13.8 66-209.7-.2z" fill="currentColor"/>
    </symbol>
    <symbol id="search" viewBox="0 0 32 32" fill="none">
        <path d="m29.71 28.29-6.5-6.5h-.07a12 12 0 1 0-1.39 1.39s0 .05 0 .07l6.5 6.5a1 1 0 0 0 1.42 0 1 1 0 0 0 .04-1.46ZM14 24a10 10 0 1 1 10-10 10 10 0 0 1-10 10Z" fill="currentColor"/>
    </symbol>
</svg>